# xmcd CD database file
#
# Track frame offsets:
#	150
#	9835
#	24900
#	34123
#	48636
#	61096
#	75001
#	85464
#	95958
#	108583
#	123211
#	135266
#	146011
#	157791
#	169233
#	182285
#	202214
#	212924
#	227836
#
# Disc length: 3146 seconds
#
# Revision: 0
# Processed by: cddbd v1.5.1PL0 Copyright (c) Steve Scherf et al.
# Submitted via: Feurio! 1.67 - http://www.feurio.com
#
DISCID=f10c4813
DTITLE=Various Artist - Hvezdy nad osadou
DYEAR=2005
DGENRE=Country
TTITLE0=Frantisek Nedved - Jizni kriz
TTITLE1=Michal Tucny - Indian Banjo
TTITLE2=Wabi Danek - Fram
TTITLE3=Kamelot - Houka vlak
TTITLE4=Kto - Placek v oudoli
TTITLE5=Jitka Vrbova - Muj hrob je more
TTITLE6=Wabi Ryvola - Zpoved
TTITLE7=Zlaty Orel - Mame v kapse vejplatu
TTITLE8=Taxmeni - Socha Svobody
TTITLE9=Pacifik - Az zatroubeji andele
TTITLE10=Miki Ryvola - Kvet sakury
TTITLE11=Grosaci - Usmej se srdcova damo
TTITLE12=Tramp Evergreen Band - Mexicka svatba
TTITLE13=Udoli Desu - Indian
TTITLE14=Paberky Marko Cermaka - Co si tu pocit
TTITLE15=Rangers - Kopej hrob muj
TTITLE16=Duo Ekg-M - Zivot jde dal
TTITLE17=Magison - Shorty a Joe
TTITLE18=Honza Nedved - Vyrocni ohen
EXTD=
EXTT0=
EXTT1=
EXTT2=
EXTT3=
EXTT4=
EXTT5=
EXTT6=
EXTT7=
EXTT8=
EXTT9=
EXTT10=
EXTT11=
EXTT12=
EXTT13=
EXTT14=
EXTT15=
EXTT16=
EXTT17=
EXTT18=
PLAYORDER=
